+<svg width="1060" height="665" viewBox="0 0 1060 665" fill="none" xmlns="http://www.w3.org/2000/svg">
<g id="undraw_circles_y-7-s2 1" clip-path="url(#clip0_2_8)">
<path id="Vector" d="M571.5 574C637.498 574 691 563.255 691 550C691 536.745 637.498 526 571.5 526C505.502 526 452 536.745 452 550C452 563.255 505.502 574 571.5 574Z" stroke="#444053" stroke-miterlimit="10"/>
<circle id="Ellipse 6" cx="705" cy="77" r="11" fill="#D9D9D9"/>
<circle id="Ellipse 5" cx="146" cy="194" r="11" fill="#D9D9D9"/>
<circle id="Ellipse 2" cx="742.5" cy="332.5" r="37.5" fill="#D9D9D9"/>
<circle id="Ellipse 4" cx="118" cy="166" r="17" fill="#D9D9D9"/>
<path id="Vector_2" d="M407.73 595.33C396.2 597.49 394.1 588.65 394.1 588.65C394.1 588.65 392.66 580.79 392.1 580.2C391.973 579.971 391.941 579.702 392.01 579.45C392.311 578.118 392.876 576.86 393.67 575.75C394.39 574.9 393.8 571.36 393.8 571.36L407.16 567.96C407.731 569.221 408.17 570.538 408.47 571.89C408.61 573.13 410.57 578.77 410.37 579.55C410.17 580.33 411.23 582.76 411.37 584.01C411.51 585.26 413.14 587.09 413.27 587.74C413.471 588.332 413.712 588.91 413.99 589.47C414.347 590.332 414.631 591.221 414.84 592.13C415.52 594.87 407.73 595.33 407.73 595.33Z" fill="#444053"/>
<path id="Vector_3" opacity="0.1" d="M389.91 553.07C392.07 552.75 404.13 547.18 399.41 551.18C398.147 552.328 396.596 553.11 394.922 553.443C393.249 553.776 391.516 553.647 389.91 553.07Z" fill="black"/>
<path id="Vector_4" opacity="0.1" d="M395.87 557.46C395.87 557.46 396.92 561.53 400.92 561C404.92 560.47 395.87 557.46 395.87 557.46Z" fill="black"/>
<path id="Vector_5" opacity="0.1" d="M392.53 565.72C393.25 565.52 401.83 561.59 402.03 563.43C402.23 565.27 393.84 568.43 393.19 567.49C392.813 566.971 392.585 566.359 392.53 565.72Z" fill="black"/>
<path id="Vector_6" opacity="0.1" d="M420.31 561C421.31 560.94 431.18 557.79 433.15 560.61L420.31 561Z" fill="black"/>
<path id="Vector_7" opacity="0.1" d="M429.22 562.84C429.22 562.84 430.92 561.33 432.62 562.12C434.32 562.91 429.22 562.84 429.22 562.84Z" fill="black"/>
<path id="Vector_8" opacity="0.1" d="M438.91 574.89C438.91 574.89 438.26 579.21 435.64 580.66L438.91 574.89Z" fill="black"/>
<path id="Vector_9" opacity="0.1" d="M566.66 572.09C568.066 572.647 569.34 573.491 570.4 574.57C568.63 572.57 563.57 571.57 561.09 570.64C558.02 569.5 554.67 568.33 552.09 566.3C557.081 567.874 561.95 569.809 566.66 572.09Z" fill="black"/>
<path id="Vector_10" opacity="0.1" d="M558.8 589.14C561.39 587.88 564.39 587.85 567.28 587.87C569.042 587.838 570.803 587.972 572.54 588.27C575.193 588.977 577.768 589.945 580.23 591.16C586.364 593.734 592.959 595.027 599.61 594.96" fill="black"/>
<g id="Group 1">
<path id="Vector_11" d="M118.474 343.791C118.825 344.682 119.222 345.553 119.664 346.401V346.511C119.664 346.511 125.324 367.421 127.974 371.811C128.744 373.081 129.614 374.461 130.474 375.811C130.305 376.804 130.305 377.819 130.474 378.811C131.274 383.471 132.244 389.881 131.804 391.291C131.364 392.701 132.334 396.211 130.804 397.431C129.274 398.651 127.704 400.771 132.394 403.581C132.394 403.581 133.274 405.951 132.484 406.481C132.394 406.541 132.484 406.671 132.704 406.841C131.414 410.661 129.524 416.841 130.704 417.281C131.354 417.531 133.114 416.611 135.044 415.371C135.094 415.621 135.134 415.891 135.184 416.161C135.491 418.22 135.966 420.25 136.604 422.231C137.464 424.141 138.324 427.361 137.864 428.421C137.404 429.481 139.124 431.841 138.724 432.771C138.324 433.701 140.054 436.721 140.054 436.721C140.054 436.721 141.774 442.581 141.704 444.561C141.634 446.541 143.564 459.311 143.564 459.311C143.564 459.311 141.564 465.901 142.564 467.811C143.564 469.721 144.214 476.311 142.564 478.751C140.914 481.191 138.844 486.581 139.514 488.031C140.184 489.481 138.584 507.401 142.624 514.781C143.142 517.527 143.519 520.297 143.754 523.082C143.754 525.082 146.934 530.392 146.934 530.392C146.934 530.392 145.014 538.391 149.724 539.741C150.049 539.843 150.385 539.907 150.724 539.931C150.868 540.806 150.75 541.704 150.384 542.512C149.58 543.626 149.008 544.891 148.704 546.231C148.635 546.484 148.668 546.753 148.794 546.981C149.324 547.571 150.794 555.481 150.794 555.481C150.794 555.481 152.914 564.372 164.584 562.202C164.584 562.202 172.474 561.741 171.814 558.971C171.598 558.057 171.31 557.161 170.954 556.291C170.677 555.729 170.43 555.151 170.214 554.561C170.084 553.901 168.424 552.051 168.294 550.801C168.164 549.551 167.104 547.112 167.294 546.322C167.484 545.532 165.504 539.871 165.364 538.611C165.202 537.735 164.951 536.877 164.614 536.051L165.034 535.851C165.034 535.851 166.094 529.921 165.174 527.751C164.254 525.581 160.594 522.751 160.594 522.751C160.594 522.751 161.124 508.192 160.464 506.212C159.804 504.232 160.794 496.731 160.794 496.731C160.794 496.731 163.044 486.121 162.914 483.731C162.839 482.252 163.064 480.772 163.574 479.381C163.574 479.381 164.974 463.771 165.894 461.791C166.814 459.811 167.894 440.451 167.894 440.451L168.514 442.231C169.386 444.903 170.421 447.518 171.614 450.061C172.124 450.861 173.614 453.421 174.894 455.561L176.784 458.761C176.784 458.761 177.644 461.861 177.044 463.761C176.444 465.661 183.214 475.941 183.214 475.941C182.779 476.8 182.552 477.749 182.554 478.712C182.744 479.712 180.494 482.861 180.494 482.861C180.494 482.861 179.634 485.691 180.164 486.681C180.694 487.671 179.304 493.531 179.304 493.531C179.304 493.531 177.044 506.442 176.514 507.962C175.984 509.482 176.784 519.882 176.784 519.882C176.784 519.882 172.624 530.532 174.554 534.072C174.634 535.382 174.644 537.381 174.134 538.191C173.444 539.271 173.644 543.261 173.714 544.361C173.714 544.551 173.714 544.651 173.714 544.651C173.714 544.651 171.454 547.651 174.304 548.871C177.154 550.091 186.844 550.971 186.844 550.971C186.844 550.971 196.054 553.612 200.494 554.332C204.934 555.052 214.224 554.791 214.884 552.091C215.12 551.253 215.201 550.379 215.124 549.512C215.065 548.964 214.865 548.44 214.545 547.992C214.224 547.543 213.794 547.185 213.294 546.952C210.564 545.866 207.773 544.941 204.934 544.181C204.934 544.181 200.554 543.181 200.154 541.281C199.754 539.381 193.524 534.101 193.524 534.101C193.524 534.101 193.454 533.731 193.324 533.231H193.524L193.224 532.931C192.914 531.931 192.414 530.611 191.804 530.861C191.709 530.683 191.651 530.486 191.634 530.284C191.617 530.082 191.64 529.879 191.704 529.686C191.768 529.494 191.869 529.316 192.004 529.164C192.138 529.012 192.301 528.889 192.484 528.801C194.874 527.491 196.334 523.341 195.664 518.861C194.994 514.381 194.874 515.171 196.264 512.601C197.127 510.659 197.471 508.527 197.264 506.411L200.934 492.731C201.509 491.051 201.866 489.303 201.994 487.531C202.057 486.137 202.418 484.773 203.054 483.531C203.054 483.531 204.714 474.041 206.174 471.871C207.634 469.701 205.174 462.051 205.174 462.051C205.174 462.051 202.924 450.201 203.054 444.791C203.184 439.381 197.214 420.621 197.214 420.621C196.448 419.404 196.124 417.96 196.294 416.531C196.414 415.411 195.714 413.592 194.924 411.962L194.674 411.451C194.979 411.059 195.348 410.721 195.764 410.451C197.404 409.451 198.174 406.821 198.184 404.971L175.574 351.681C175.574 351.521 186.044 330.131 186.014 329.971C185.394 326.461 179.474 317.151 179.474 317.151C179.418 317.035 179.332 316.935 179.224 316.861C177.894 316.251 173.394 313.701 173.394 313.701C169.864 309.341 166.554 308.441 164.394 308.471C163.715 308.463 163.039 308.568 162.394 308.781C162.164 308.853 161.94 308.943 161.724 309.051L161.624 309.921C161.44 307.909 161.599 305.88 162.094 303.921C162.144 303.751 162.194 303.571 162.234 303.401C162.564 303.401 162.894 303.401 163.234 303.401C165.351 303.408 167.449 302.998 169.407 302.194C171.365 301.39 173.146 300.208 174.648 298.715C176.149 297.223 177.342 295.45 178.158 293.497C178.974 291.543 179.398 289.448 179.404 287.331C179.404 285.827 179.195 284.329 178.784 282.881L178.704 282.651L179.204 282.431C181.204 281.691 183.714 282.951 185.334 281.611C185.922 281.029 186.343 280.301 186.554 279.501C187.003 278.431 187.303 277.304 187.444 276.151C187.444 275.951 187.444 275.751 187.444 275.551C187.449 275.492 187.449 275.431 187.444 275.371C187.449 275.298 187.449 275.225 187.444 275.151C187.444 275.061 187.444 274.971 187.444 274.881C187.354 274.147 187.056 273.453 186.584 272.881C185.524 271.641 183.754 271.341 182.414 270.431C181.319 269.583 180.41 268.517 179.744 267.301C179.077 266.093 178.2 265.013 177.154 264.111C176.623 263.665 175.98 263.373 175.294 263.265C174.609 263.157 173.907 263.239 173.264 263.501C172.873 263.769 172.441 263.972 171.984 264.101C171.488 264.108 171 263.977 170.574 263.721C165.974 261.571 160.574 261.951 155.574 262.591C153.542 262.753 151.548 263.232 149.664 264.011C148.723 264.399 147.877 264.987 147.186 265.735C146.496 266.483 145.976 267.372 145.664 268.341C145.254 269.891 145.564 271.571 145.074 273.101C144.734 274.101 144.074 275.021 143.654 276.031C143.45 276.561 143.323 277.116 143.274 277.681C143.274 277.681 143.274 277.791 143.274 277.841C143.104 280.111 143.994 282.501 144.424 284.841C145.014 288.031 144.714 291.501 146.084 294.521C146.221 294.892 146.395 295.247 146.604 295.581C146.124 296.581 145.604 297.641 145.104 298.631C144.364 298.421 142.104 297.921 142.024 299.901C142.009 301.511 141.633 303.096 140.924 304.541C140.819 304.625 140.709 304.702 140.594 304.771C140.472 304.827 140.371 304.92 140.305 305.037C140.238 305.153 140.21 305.288 140.224 305.421L139.964 305.621C139.85 305.629 139.739 305.667 139.644 305.731C139.504 305.491 139.044 305.471 137.584 307.211C135.641 309.233 133.407 310.952 130.954 312.311C130.954 312.311 121.134 319.161 120.604 322.311C120.074 325.461 116.794 339.221 118.474 343.791ZM161.594 310.371C161.594 310.371 161.594 310.301 161.594 310.261L161.714 310.321L161.594 310.371ZM188.274 534.371C188.009 534.484 187.723 534.542 187.434 534.541L188.274 534.371Z" fill="url(#paint0_linear_2_8)"/>
<circle id="Ellipse 3" cx="333.934" cy="456.901" r="17" fill="#D9D9D9"/>
<path id="Vector_12" opacity="0.1" d="M165.664 562.232C154.134 564.392 152.034 555.552 152.034 555.552C152.034 555.552 150.594 547.692 150.034 547.102C149.908 546.873 149.875 546.604 149.944 546.352L152.714 554.352C152.714 554.352 155.014 559.141 163.524 558.411C168.374 558.011 170.754 557.111 171.914 556.411C172.271 557.273 172.555 558.163 172.764 559.072C173.454 561.772 165.664 562.232 165.664 562.232Z" fill="black"/>
<path id="Vector_13" opacity="0.1" d="M156.684 549.781C156.684 549.781 159.574 549.852 159.764 547.492L156.684 549.781Z" fill="black"/>
<path id="Vector_14" d="M206.804 472.351C205.364 474.511 203.724 483.941 203.724 483.941C203.115 485.19 202.774 486.553 202.724 487.941C202.618 489.704 202.282 491.446 201.724 493.121L197.934 506.681C198.136 508.783 197.791 510.902 196.934 512.832C195.564 515.392 195.694 514.601 196.344 519.061C196.994 523.521 195.564 527.642 193.204 528.952C190.844 530.262 194.254 533.341 194.254 533.341C194.254 533.341 179.184 537.401 176.034 534.911C172.884 532.421 177.674 520.111 177.674 520.111C177.674 520.111 176.894 509.761 177.414 508.251C177.934 506.741 180.164 493.901 180.164 493.901C180.164 493.901 181.544 488.071 181.014 487.091C180.484 486.111 181.344 483.291 181.344 483.291C181.344 483.291 183.574 480.141 183.344 479.161C183.348 478.206 183.574 477.265 184.004 476.411C184.004 476.411 177.324 466.191 177.904 464.291C178.484 462.391 177.644 459.291 177.644 459.291C177.644 459.291 176.804 457.841 175.784 456.111C174.544 453.981 173.044 451.442 172.534 450.642C171.363 448.111 170.345 445.513 169.484 442.861L168.864 441.082C168.864 441.082 167.864 460.341 166.864 462.301C165.864 464.261 164.574 479.801 164.574 479.801C164.065 481.182 163.84 482.652 163.914 484.121C164.044 486.541 161.814 497.121 161.814 497.121C161.814 497.121 160.814 504.591 161.494 506.561C162.174 508.531 161.624 523.001 161.624 523.001C161.624 523.001 165.224 525.821 166.144 528.001C167.064 530.181 166.014 536.061 166.014 536.061C166.014 536.061 155.534 541.301 150.874 539.921C146.214 538.541 148.124 530.621 148.124 530.621C148.124 530.621 144.984 525.381 144.984 523.351C144.751 520.581 144.377 517.824 143.864 515.091C139.864 507.751 141.444 489.941 140.794 488.491C140.144 487.041 142.164 481.682 143.794 479.262C145.424 476.842 144.794 470.262 143.794 468.382C142.794 466.502 144.794 459.931 144.794 459.931C144.794 459.931 142.894 447.222 142.964 445.262C143.034 443.302 141.324 437.462 141.324 437.462C141.324 437.462 139.624 434.461 140.014 433.531C140.404 432.601 138.704 430.252 139.164 429.212C139.624 428.172 138.764 424.951 137.914 423.051C137.292 421.091 136.824 419.085 136.514 417.051C136.114 414.791 135.824 412.801 135.824 412.801L146.634 404.091L173.634 397.012L183.874 393.681L193.764 409.272C193.764 409.272 194.764 410.901 195.694 412.781C196.474 414.401 197.164 416.212 197.044 417.332C196.88 418.75 197.204 420.182 197.964 421.392C197.964 421.392 203.854 440.062 203.724 445.392C203.594 450.722 205.824 462.561 205.824 462.561C205.824 462.561 208.244 470.191 206.804 472.351Z" fill="#3F3D56"/>
<path id="Vector_15" opacity="0.1" d="M146.144 482.112C146.144 482.112 157.674 477.202 161.074 480.672C164.474 484.142 146.144 482.112 146.144 482.112Z" fill="black"/>
<path id="Vector_16" opacity="0.1" d="M152.624 484.072C152.624 484.072 140.934 490.682 144.934 491.742C148.934 492.802 152.624 484.072 152.624 484.072Z" fill="black"/>
<path id="Vector_17" opacity="0.1" d="M187.474 478.382C187.474 478.382 182.474 478.701 184.394 479.691C186.314 480.681 187.474 478.382 187.474 478.382Z" fill="black"/>
<path id="Vector_18" opacity="0.1" d="M193.704 479.882C193.634 480.212 179.224 484.882 182.044 486.962C184.864 489.042 193.704 479.882 193.704 479.882Z" fill="black"/>
<path id="Vector_19" opacity="0.1" d="M215.384 552.142C214.734 554.832 205.554 555.092 201.174 554.372C196.794 553.652 187.674 551.031 187.674 551.031C187.674 551.031 178.114 550.112 175.294 548.932C172.474 547.752 174.704 544.742 174.704 544.742C174.704 544.742 174.704 544.642 174.704 544.462L188.414 547.462C188.414 547.462 195.164 550.341 199.484 550.341C203.264 550.341 211.715 551.892 215.645 549.542C215.719 550.417 215.63 551.298 215.384 552.142Z" fill="black"/>
<path id="Vector_20" d="M238.835 382.551C234.935 384.031 225.935 384.191 221.935 384.191C220.715 384.191 219.935 384.191 219.935 384.191L217.365 378.951L219.935 374.581C219.935 374.581 222.295 373.931 225.435 373.361C230.065 372.531 236.435 371.881 239.435 373.751C244.475 376.881 243.935 380.681 238.835 382.551Z" fill="#A1616A"/>
<path id="Vector_21" d="M179.264 319.841L180.405 318.531C180.405 318.531 186.255 327.791 186.865 331.281C187.475 334.771 188.264 338.791 188.264 338.791C188.264 338.791 189.745 343.331 190.715 345.341C191.54 346.864 192.185 348.479 192.635 350.151C192.715 351.021 192.285 352.941 194.115 354.151C195.945 355.361 196.385 358.691 196.385 358.691C196.385 358.691 203.025 365.152 206.525 365.332C210.025 365.512 220.055 367.251 219.715 368.991C219.375 370.731 223.905 371.791 225.715 372.231C227.525 372.671 213.935 377.921 221.935 384.681C221.935 384.681 216.864 385.682 216.344 386.952C215.824 388.222 210.495 386.251 210.495 386.251C210.495 386.251 209.354 383.541 205.424 383.371C201.494 383.201 199.484 381.451 199.484 381.191C199.484 380.931 195.555 378.742 193.375 378.132C191.195 377.522 188.305 377.262 188.215 376.642C188.125 376.022 175.115 319.871 175.115 319.871L179.264 319.841Z" fill="#6C63FF"/>
<path id="Vector_22" opacity="0.05" d="M179.264 320.061L180.405 318.751C180.405 318.751 186.255 328.011 186.865 331.511C187.475 335.011 188.264 339.021 188.264 339.021C188.264 339.021 189.745 343.562 190.715 345.572C191.538 347.092 192.183 348.703 192.635 350.371C192.715 351.251 192.285 353.171 194.115 354.371C195.945 355.571 196.385 358.911 196.385 358.911C196.385 358.911 203.025 365.381 206.525 365.551C210.025 365.721 220.055 367.471 219.715 369.221C219.375 370.971 223.905 372.022 225.715 372.452C227.525 372.882 213.935 378.152 221.935 384.882C221.935 384.882 216.864 385.881 216.344 387.151C215.824 388.421 210.495 386.452 210.495 386.452C210.495 386.452 209.354 383.742 205.424 383.572C201.494 383.402 199.484 381.652 199.484 381.382C199.484 381.112 195.555 378.942 193.375 378.332C191.195 377.722 188.305 377.451 188.215 376.841C188.125 376.231 175.115 320.061 175.115 320.061H179.264Z" fill="black"/>
<path id="Vector_23" d="M312.934 557.462C378.934 557.462 432.434 568.212 432.434 581.462C432.434 594.712 378.934 605.462 312.934 605.462C246.934 605.462 193.434 594.722 193.434 581.462" stroke="#444053" stroke-miterlimit="10"/>
<path id="Vector_24" d="M288.377 62.8589L271.528 60L250.271 185.279L267.121 188.138L288.377 62.8589Z" fill="#444053"/>
<path id="Vector_25" d="M308.275 565.651L312.014 592.352L315.215 564.591L308.275 565.651Z" fill="#D0D2D5"/>
<path id="Vector_26" d="M188.135 550.701V567.261L191.875 581.672H194.544L197.755 566.191L199.355 547.501L188.135 550.701Z" fill="#3F3D56"/>
<path id="Vector_27" d="M180.524 486.102L188.524 487.702C188.524 487.702 179.454 512.792 185.854 518.132H175.724C175.724 518.132 171.984 498.912 180.524 486.102Z" fill="#D0D2D5"/>
<path id="Vector_28" opacity="0.1" d="M180.524 486.102L188.524 487.702C188.524 487.702 179.454 512.792 185.854 518.132H175.724C175.724 518.132 171.984 498.912 180.524 486.102Z" fill="black"/>
<path id="Vector_29" d="M234.054 184.431L208.424 346.741C208.424 346.741 170.524 519.741 184.934 553.911H203.094L257.554 221.811L234.054 184.431Z" fill="#D0D2D5"/>
<path id="Vector_30" d="M299.054 164.271L318.704 327.411C318.704 327.411 333.014 535.241 317.344 568.851H301.864L274.204 200.761L299.054 164.271Z" fill="#D0D2D5"/>
<path id="Vector_31" d="M166.934 320.491C166.524 320.321 138.024 308.551 141.934 306.211C144.264 304.821 147.134 298.941 149.094 294.331C150.464 291.121 151.394 288.521 151.394 288.521C151.394 288.521 174.274 284.461 166.084 298.521C164.794 300.674 163.82 303.001 163.194 305.431C160.835 314.931 166.704 320.311 166.934 320.491Z" fill="#A1616A"/>
<path id="Vector_32" opacity="0.1" d="M166.054 298.481C164.764 300.634 163.79 302.961 163.164 305.391C160.263 305.185 157.473 304.191 155.095 302.517C152.716 300.843 150.839 298.552 149.664 295.891C149.434 295.384 149.233 294.863 149.064 294.331C150.434 291.121 151.364 288.521 151.364 288.521C151.364 288.521 174.244 284.461 166.054 298.481Z" fill="black"/>
<path id="Vector_33" d="M180.274 288.921C180.258 292.58 178.988 296.122 176.677 298.957C174.366 301.793 171.153 303.751 167.574 304.505C163.994 305.259 160.264 304.764 157.005 303.102C153.747 301.44 151.156 298.712 149.665 295.371C148.762 293.341 148.299 291.143 148.304 288.921C148.325 285.08 149.726 281.374 152.252 278.481C154.779 275.588 158.262 273.7 162.066 273.162C165.869 272.625 169.739 273.474 172.968 275.554C176.198 277.634 178.571 280.806 179.654 284.491C180.065 285.932 180.274 287.423 180.274 288.921Z" fill="#A1616A"/>
<path id="Vector_34" opacity="0.1" d="M195.694 412.772C194.55 414.018 193.75 415.541 193.374 417.191C193.374 417.191 185.514 422.561 186.034 419.191C186.554 415.821 181.934 401.991 181.934 401.991L182.454 420.731C182.454 420.731 157.304 419.551 155.454 417.731C153.604 415.911 142.934 412.341 142.934 412.341C142.934 412.341 139.644 414.981 136.614 416.981C136.214 414.721 135.924 412.731 135.924 412.731L146.734 404.022L173.734 396.941L183.874 393.681L193.764 409.272C193.764 409.272 194.784 410.892 195.694 412.772Z" fill="black"/>
<path id="Vector_35" d="M196.514 411.291C194.424 412.601 193.634 416.142 193.634 416.142C193.634 416.142 185.774 421.512 186.294 418.142C186.814 414.772 182.234 400.981 182.234 400.981L182.764 419.721C182.764 419.721 157.604 418.541 155.764 416.721C153.924 414.901 143.184 411.351 143.184 411.351C143.184 411.351 133.884 418.821 132.184 418.161C130.484 417.501 135.184 404.801 135.184 404.801L140.024 330.381C140.024 330.381 138.714 308.241 140.684 307.451C140.988 307.331 141.266 307.155 141.504 306.931C142.804 305.771 143.194 303.411 143.304 301.421C143.434 299.071 146.574 300.241 146.574 300.241L144.744 302.601L160.984 312.471L161.124 312.561C161.774 312.228 162.442 311.93 163.124 311.671C164.564 311.121 166.474 310.601 167.724 311.121C168.423 311.48 169.016 312.014 169.444 312.671C170.373 314.062 171.116 315.568 171.654 317.151L177.554 327.101C177.554 327.101 180.554 340.341 180.554 340.861C180.554 341.381 181.474 353.441 182.554 354.751C183.634 356.061 184.654 362.612 184.264 364.582C183.874 366.552 184.914 373.882 184.914 373.882C189.244 377.422 191.464 389.471 191.464 389.471C191.464 389.471 198.284 402.971 198.804 404.541C199.324 406.111 198.614 409.981 196.514 411.291Z" fill="#444053"/>
<path id="Vector_36" opacity="0.1" d="M161.004 312.941C159.404 315.301 154.804 318.611 154.804 318.611L141.524 307.401C142.824 306.241 143.214 303.871 143.324 301.891C143.454 299.531 146.594 300.711 146.594 300.711L146.214 301.201C146.033 301.437 145.903 301.708 145.833 301.997C145.764 302.286 145.755 302.586 145.809 302.878C145.863 303.171 145.977 303.448 146.145 303.694C146.313 303.939 146.531 304.146 146.784 304.301L161.004 312.941Z" fill="black"/>
<path id="Vector_37" d="M161.004 312.411C159.404 314.771 154.804 318.091 154.804 318.091L141.524 306.871C142.824 305.711 143.214 303.351 143.324 301.361C143.454 299.011 146.594 300.181 146.594 300.181L146.214 300.671C146.033 300.907 145.903 301.178 145.833 301.467C145.764 301.756 145.755 302.056 145.809 302.348C145.863 302.641 145.977 302.919 146.145 303.164C146.313 303.409 146.531 303.616 146.784 303.771L161.004 312.411Z" fill="#444053"/>
<path id="Vector_38" opacity="0.1" d="M167.144 314.181C165.424 316.231 162.994 318.561 163.144 317.391C163.294 316.221 161.694 313.651 160.704 312.501C162.261 312.012 163.937 312.057 165.464 312.631C166.148 312.995 166.727 313.529 167.144 314.181Z" fill="black"/>
<path id="Vector_39" d="M167.405 313.391C165.685 315.451 163.255 317.771 163.405 316.611C163.555 315.451 162.115 313.551 161.115 312.401C162.555 311.851 164.465 311.331 165.715 311.851C166.404 312.207 166.987 312.738 167.405 313.391Z" fill="#444053"/>
<path id="Vector_40" opacity="0.1" d="M141.534 307.521C141.534 307.521 141.704 305.952 139.434 308.662C137.529 310.649 135.339 312.341 132.934 313.682C132.934 313.682 123.244 320.501 122.714 323.681C122.184 326.861 119.044 340.451 120.714 344.991C122.384 349.531 135.044 371.291 135.044 371.291C135.044 371.291 131.724 375.221 132.504 379.851C133.284 384.481 134.254 390.852 133.814 392.252C133.374 393.652 134.344 397.141 132.814 398.361C131.284 399.581 129.764 401.681 134.394 404.481C134.394 404.481 135.264 406.841 134.474 407.361C133.684 407.881 146.094 413.301 150.984 410.421C155.874 407.541 164.704 384.482 164.874 379.322C165.044 374.162 162.164 357.142 160.594 353.122C159.024 349.102 154.304 333.462 152.294 329.972C150.284 326.482 141.534 307.521 141.534 307.521Z" fill="black"/>
<path id="Vector_41" d="M141.004 307.521C141.004 307.521 141.184 305.952 138.914 308.662C136.997 310.667 134.789 312.373 132.364 313.722C132.364 313.722 122.664 320.542 122.144 323.722C121.624 326.902 118.474 340.492 120.144 345.032C121.814 349.572 134.464 371.332 134.464 371.332C134.464 371.332 131.144 375.262 131.934 379.892C132.724 384.522 133.684 390.891 133.244 392.291C132.804 393.691 133.764 397.181 132.244 398.401C130.724 399.621 129.184 401.722 133.814 404.522C133.814 404.522 134.694 406.881 133.904 407.401C133.114 407.921 145.524 413.342 150.414 410.462C155.304 407.582 164.124 384.521 164.304 379.361C164.484 374.201 161.594 357.182 160.024 353.162C158.454 349.142 153.734 333.501 151.724 330.011C149.714 326.521 141.004 307.521 141.004 307.521Z" fill="#6C63FF"/>
<path id="Vector_42" opacity="0.1" d="M137.514 322.371C137.514 322.371 145.024 330.671 144.764 336.171C144.764 336.171 144.854 327.261 137.514 322.371Z" fill="black"/>
<path id="Vector_43" opacity="0.1" d="M162.864 310.491C162.864 310.491 167.734 307.492 173.864 315.122C173.864 315.122 178.314 317.651 179.624 318.271C180.934 318.891 182.424 335.122 182.424 335.122C182.424 335.122 185.304 342.122 184.514 346.122C183.724 350.122 186.794 363.942 186.794 363.942C186.794 363.942 191.854 388.752 191.684 389.442C191.514 390.132 186.524 381.672 186.614 377.442C186.704 373.212 182.424 360.141 181.814 359.361C181.204 358.581 177.004 336.122 177.004 336.122C177.004 336.122 173.604 326.601 171.414 323.461C169.224 320.321 166.524 314.372 165.414 313.322C164.6 312.619 163.691 312.033 162.714 311.581L162.864 310.491Z" fill="black"/>
<path id="Vector_44" d="M162.804 310.491C162.804 310.491 168.264 307.492 174.374 315.122C174.374 315.122 178.834 317.651 180.144 318.271C181.454 318.891 182.934 335.122 182.934 335.122C182.934 335.122 185.814 342.122 185.034 346.122C184.254 350.122 187.304 363.942 187.304 363.942C187.304 363.942 192.374 388.752 192.194 389.442C192.014 390.132 187.044 381.672 187.124 377.442C187.204 373.212 182.934 360.141 182.324 359.361C181.714 358.581 177.524 336.122 177.524 336.122C177.524 336.122 174.114 326.681 171.934 323.511C169.754 320.341 167.034 314.422 165.934 313.372C164.964 312.614 163.871 312.025 162.704 311.632L162.804 310.491Z" fill="#6C63FF"/>
<path id="Vector_45" d="M186.784 365.082C186.784 365.082 197.174 358.272 202.194 361.632C207.214 364.992 215.434 369.762 207.354 373.212C199.274 376.662 188.094 376.002 188.094 376.002L186.784 365.082Z" fill="#A1616A"/>
<path id="Vector_46" opacity="0.1" d="M179.554 430.811C178.004 434.141 176.724 450.812 175.854 456.132C174.614 454.002 173.114 451.461 172.604 450.661C171.433 448.131 170.415 445.533 169.554 442.882C170.554 440.482 173.264 433.602 173.264 431.082C173.264 428.002 178.264 424.132 178.264 424.132C179.158 424.965 179.765 426.061 179.996 427.262C180.228 428.462 180.073 429.705 179.554 430.811Z" fill="black"/>
<path id="Vector_47" opacity="0.1" d="M179.654 284.491C179.405 284.621 179.143 284.728 178.874 284.811C177.644 285.141 176.445 284.311 175.355 283.651C174.265 282.991 172.754 282.501 171.804 283.361C170.574 284.481 171.465 286.871 170.195 287.951C169.395 288.641 168.125 288.401 167.195 288.951C166.265 289.501 166.034 290.751 165.804 291.811C165.574 292.871 165.134 294.091 164.084 294.401C163.034 294.711 162.084 294.031 161.084 294.061C160.874 294.061 160.624 294.061 160.484 293.941C160.391 293.804 160.356 293.635 160.385 293.471C160.509 292.198 160.394 290.912 160.044 289.681C159.861 289.067 159.519 288.512 159.052 288.073C158.584 287.634 158.009 287.326 157.385 287.181C155.545 286.901 153.995 288.511 152.915 290.031C151.78 291.631 150.748 293.301 149.825 295.031C149.775 295.121 149.725 295.241 149.665 295.381C148.762 293.351 148.299 291.153 148.304 288.931C148.325 285.09 149.726 281.384 152.252 278.491C154.779 275.598 158.262 273.71 162.066 273.172C165.869 272.635 169.739 273.484 172.968 275.564C176.198 277.644 178.571 280.816 179.654 284.501V284.491Z" fill="black"/>
<path id="Vector_48" d="M152.935 289.781C154.015 288.261 155.565 286.651 157.405 286.931C158.028 287.076 158.601 287.383 159.068 287.82C159.535 288.257 159.879 288.809 160.065 289.421C160.414 290.652 160.526 291.939 160.394 293.211C160.372 293.38 160.411 293.55 160.505 293.691C160.645 293.851 160.895 293.821 161.105 293.811C162.105 293.811 163.155 294.441 164.105 294.151C165.055 293.861 165.605 292.621 165.825 291.561C166.045 290.501 166.295 289.281 167.215 288.701C168.135 288.121 169.385 288.371 170.215 287.701C171.485 286.621 170.595 284.221 171.825 283.111C172.775 282.251 174.285 282.741 175.375 283.401C176.465 284.061 177.664 284.891 178.894 284.561C179.301 284.416 179.699 284.246 180.084 284.051C182.034 283.311 184.554 284.571 186.144 283.241C186.724 282.659 187.141 281.935 187.355 281.141C187.795 280.076 188.091 278.956 188.234 277.811C188.378 276.652 188.062 275.482 187.355 274.551C186.355 273.331 184.555 273.021 183.225 272.121C182.147 271.273 181.252 270.215 180.595 269.011C179.938 267.807 179.071 266.73 178.035 265.831C177.509 265.389 176.872 265.1 176.193 264.994C175.515 264.888 174.82 264.97 174.185 265.231C173.802 265.5 173.376 265.7 172.924 265.821C172.434 265.833 171.951 265.701 171.535 265.441C166.995 263.301 161.705 263.681 156.725 264.321C154.716 264.48 152.744 264.956 150.885 265.731C149.956 266.124 149.124 266.712 148.444 267.456C147.764 268.2 147.252 269.082 146.945 270.041C146.545 271.581 146.854 273.251 146.364 274.771C146.034 275.771 145.365 276.681 144.965 277.691C143.905 280.451 145.175 283.491 145.715 286.401C146.305 289.581 146.005 293.021 147.355 296.031C147.625 296.621 147.914 297.651 148.584 297.261C149.074 296.971 149.584 295.261 149.834 294.771C150.765 293.047 151.801 291.38 152.935 289.781Z" fill="#3F3D56"/>
<path id="Vector_49" opacity="0.1" d="M124.154 340.981L121.794 347.681C121.794 347.681 127.384 368.471 130.004 372.841C132.624 377.211 136.464 382.841 136.464 382.841C140.851 384.811 145.729 385.417 150.464 384.582C157.974 383.102 179.894 379.171 179.894 379.171C180.412 379.265 180.946 379.217 181.439 379.032C181.932 378.847 182.366 378.533 182.694 378.121C183.694 376.721 188.634 376.022 188.634 376.022C188.634 376.022 194.394 367.642 187.324 364.142C187.324 364.142 186.454 366.071 182.694 364.751C178.934 363.431 177.804 365.801 177.804 365.801C177.804 365.801 171.684 367.031 168.284 366.591C164.884 366.151 156.404 365.981 155.524 365.281C155.416 365.184 155.289 365.109 155.151 365.061C155.013 365.013 154.867 364.992 154.721 365.001C154.575 365.009 154.432 365.046 154.301 365.11C154.169 365.173 154.051 365.262 153.954 365.371C152.942 365.006 151.999 364.472 151.164 363.791C150.464 363.011 149.504 364.671 149.504 364.671C149.504 364.671 148.274 363.971 148.624 363.101C148.974 362.231 147.494 358.901 147.494 358.901C147.1 357.63 147.011 356.284 147.234 354.971C147.664 353.221 145.044 346.971 145.044 346.971C145.013 345.91 145.131 344.85 145.394 343.821C145.834 342.251 142.074 339.101 142.074 339.101C142.074 339.101 138.404 321.291 130.634 327.101C122.864 332.911 124.154 340.981 124.154 340.981Z" fill="black"/>
<path id="Vector_50" d="M123.624 340.981L121.264 347.681C121.264 347.681 126.854 368.471 129.474 372.841C132.094 377.211 135.944 382.841 135.944 382.841C140.33 384.815 145.209 385.421 149.944 384.582C157.464 383.102 179.384 379.171 179.384 379.171C179.903 379.265 180.436 379.217 180.929 379.032C181.422 378.847 181.856 378.533 182.184 378.121C183.184 376.721 188.124 376.022 188.124 376.022C188.124 376.022 193.884 367.642 186.814 364.142C186.814 364.142 185.934 366.071 182.184 364.751C178.434 363.431 177.284 365.801 177.284 365.801C177.284 365.801 171.174 367.031 167.764 366.591C164.354 366.151 155.884 365.981 155.014 365.281C154.906 365.184 154.779 365.109 154.641 365.061C154.503 365.013 154.357 364.992 154.211 365.001C154.065 365.009 153.922 365.046 153.791 365.11C153.659 365.173 153.542 365.262 153.444 365.371C152.428 365.007 151.482 364.473 150.644 363.791C149.944 363.011 148.984 364.671 148.984 364.671C148.984 364.671 147.764 363.971 148.114 363.101C148.464 362.231 146.974 358.901 146.974 358.901C146.585 357.629 146.496 356.284 146.714 354.971C147.154 353.221 144.534 346.971 144.534 346.971C144.497 345.91 144.615 344.849 144.884 343.821C145.314 342.251 141.564 339.101 141.564 339.101C141.564 339.101 137.894 321.291 130.124 327.101C122.354 332.911 123.624 340.981 123.624 340.981Z" fill="#6C63FF"/>
<path id="Vector_51" opacity="0.1" d="M145.204 361.241C145.204 361.241 136.644 362.991 139.524 364.471C142.404 365.951 145.204 361.241 145.204 361.241Z" fill="black"/>
</g>
<g id="Group" opacity="0.1">
<path id="Vector_52" d="M402.11 321.04C401.928 320.426 401.586 319.871 401.118 319.434C400.651 318.996 400.075 318.691 399.45 318.55C397.61 318.27 396.06 319.88 394.98 321.39C393.846 322.992 392.811 324.662 391.88 326.39C391.6 326.91 391.12 328.59 390.63 328.88C389.96 329.27 389.63 328.23 389.4 327.64C388.05 324.64 388.4 321.19 387.76 318.01C387.287 316.161 386.91 314.288 386.63 312.4C386.43 314.68 387.33 317.08 387.76 319.4C388.35 322.58 388.05 326.02 389.4 329.03C389.67 329.62 389.96 330.65 390.63 330.26C391.12 329.97 391.63 328.26 391.88 327.78C392.808 326.051 393.844 324.381 394.98 322.78C396.06 321.26 397.61 319.65 399.45 319.94C400.075 320.081 400.651 320.386 401.118 320.824C401.586 321.261 401.928 321.816 402.11 322.43C402.325 323.076 402.443 323.75 402.46 324.43C402.56 323.288 402.441 322.137 402.11 321.04Z" fill="black"/>
<path id="Vector_53" d="M429.4 312.78C429.189 313.572 428.772 314.293 428.19 314.87C426.6 316.2 424.08 314.95 422.13 315.69C421.73 315.84 421.36 316.08 420.94 316.2C419.71 316.52 418.51 315.7 417.42 315.04C416.33 314.38 414.82 313.88 413.87 314.74C412.64 315.86 413.53 318.25 412.26 319.33C411.46 320.02 410.19 319.78 409.26 320.33C408.33 320.88 408.1 322.12 407.87 323.18C407.64 324.24 407.2 325.46 406.15 325.77C405.1 326.08 404.15 325.4 403.15 325.44C402.94 325.44 402.69 325.44 402.55 325.32C402.515 325.284 402.491 325.239 402.48 325.19C402.48 325.54 402.48 325.89 402.48 326.24C402.459 326.405 402.498 326.572 402.59 326.71C402.73 326.87 402.98 326.84 403.19 326.84C404.19 326.84 405.24 327.46 406.19 327.17C407.14 326.88 407.69 325.65 407.91 324.58C408.13 323.51 408.38 322.31 409.3 321.73C410.22 321.15 411.47 321.4 412.3 320.73C413.57 319.65 412.68 317.26 413.91 316.14C414.86 315.28 416.37 315.77 417.46 316.43C418.55 317.09 419.75 317.92 420.98 317.59C421.385 317.444 421.782 317.277 422.17 317.09C424.12 316.35 426.64 317.6 428.23 316.27C428.81 315.691 429.227 314.971 429.44 314.18C429.88 313.11 430.176 311.987 430.32 310.84C430.365 310.451 430.365 310.059 430.32 309.67C430.128 310.737 429.82 311.78 429.4 312.78Z" fill="black"/>
</g>
<path id="Vector_54" d="M255 573.44C277.6 573.44 295.92 569.916 295.92 565.57C295.92 561.224 277.6 557.7 255 557.7C232.401 557.7 214.08 561.224 214.08 565.57C214.08 569.916 232.401 573.44 255 573.44Z" fill="#6C63FF"/>
<path id="Vector_55" d="M254.32 568.47C256.949 568.47 259.08 565.676 259.08 562.23C259.08 558.784 256.949 555.99 254.32 555.99C251.691 555.99 249.56 558.784 249.56 562.23C249.56 565.676 251.691 568.47 254.32 568.47Z" fill="#3F3D56"/>
<path id="Vector_56" d="M254.32 560.85C256.949 560.85 259.08 558.056 259.08 554.61C259.08 551.164 256.949 548.37 254.32 548.37C251.691 548.37 249.56 551.164 249.56 554.61C249.56 558.056 251.691 560.85 254.32 560.85Z" fill="#3F3D56"/>
<path id="Vector_57" d="M254.32 553.23C256.949 553.23 259.08 550.436 259.08 546.99C259.08 543.544 256.949 540.75 254.32 540.75C251.691 540.75 249.56 543.544 249.56 546.99C249.56 550.436 251.691 553.23 254.32 553.23Z" fill="#3F3D56"/>
<path id="Vector_58" d="M254.32 545.6C256.949 545.6 259.08 542.806 259.08 539.36C259.08 535.914 256.949 533.12 254.32 533.12C251.691 533.12 249.56 535.914 249.56 539.36C249.56 542.806 251.691 545.6 254.32 545.6Z" fill="#3F3D56"/>
<path id="Vector_59" d="M254.32 537.98C256.949 537.98 259.08 535.186 259.08 531.74C259.08 528.294 256.949 525.5 254.32 525.5C251.691 525.5 249.56 528.294 249.56 531.74C249.56 535.186 251.691 537.98 254.32 537.98Z" fill="#3F3D56"/>
<path id="Vector_60" d="M254.32 530.36C256.949 530.36 259.08 527.566 259.08 524.12C259.08 520.674 256.949 517.88 254.32 517.88C251.691 517.88 249.56 520.674 249.56 524.12C249.56 527.566 251.691 530.36 254.32 530.36Z" fill="#3F3D56"/>
<path id="Vector_61" d="M254.32 522.74C256.949 522.74 259.08 519.946 259.08 516.5C259.08 513.054 256.949 510.26 254.32 510.26C251.691 510.26 249.56 513.054 249.56 516.5C249.56 519.946 251.691 522.74 254.32 522.74Z" fill="#3F3D56"/>
<path id="Vector_62" opacity="0.1" d="M404.43 108.96C412.863 108.96 419.7 102.123 419.7 93.69C419.7 85.2566 412.863 78.42 404.43 78.42C395.997 78.42 389.16 85.2566 389.16 93.69C389.16 102.123 395.997 108.96 404.43 108.96Z" fill="#6C63FF"/>
<path id="Vector_63" opacity="0.1" d="M459.06 51.2C473.198 51.2 484.66 39.7385 484.66 25.6C484.66 11.4615 473.198 0 459.06 0C444.922 0 433.46 11.4615 433.46 25.6C433.46 39.7385 444.922 51.2 459.06 51.2Z" fill="#6C63FF"/>
<path id="Vector_64" opacity="0.1" d="M425.18 175.42C439.318 175.42 450.78 163.958 450.78 149.82C450.78 135.682 439.318 124.22 425.18 124.22C411.042 124.22 399.58 135.682 399.58 149.82C399.58 163.958 411.042 175.42 425.18 175.42Z" fill="#6C63FF"/>
<path id="Vector_65" opacity="0.1" d="M963.93 292.96C972.363 292.96 979.2 286.123 979.2 277.69C979.2 269.257 972.363 262.42 963.93 262.42C955.497 262.42 948.66 269.257 948.66 277.69C948.66 286.123 955.497 292.96 963.93 292.96Z" fill="#6C63FF"/>
<path id="Vector_66" opacity="0.1" d="M909.29 235.2C923.428 235.2 934.89 223.738 934.89 209.6C934.89 195.462 923.428 184 909.29 184C895.151 184 883.69 195.462 883.69 209.6C883.69 223.738 895.151 235.2 909.29 235.2Z" fill="#6C63FF"/>
<path id="Vector_67" opacity="0.1" d="M943.18 359.42C957.318 359.42 968.78 347.958 968.78 333.82C968.78 319.682 957.318 308.22 943.18 308.22C929.042 308.22 917.58 319.682 917.58 333.82C917.58 347.958 929.042 359.42 943.18 359.42Z" fill="#6C63FF"/>
<path id="Vector_68" opacity="0.1" d="M100.77 314C105.547 314 109.42 310.127 109.42 305.35C109.42 300.573 105.547 296.7 100.77 296.7C95.9927 296.7 92.12 300.573 92.12 305.35C92.12 310.127 95.9927 314 100.77 314Z" fill="#6C63FF"/>
<path id="Vector_69" opacity="0.1" d="M137.85 287.11C145.858 287.11 152.35 280.618 152.35 272.61C152.35 264.602 145.858 258.11 137.85 258.11C129.842 258.11 123.35 264.602 123.35 272.61C123.35 280.618 129.842 287.11 137.85 287.11Z" fill="#6C63FF"/>
<path id="Vector_70" opacity="0.1" d="M68.45 309.6C76.4581 309.6 82.95 303.108 82.95 295.1C82.95 287.092 76.4581 280.6 68.45 280.6C60.4419 280.6 53.95 287.092 53.95 295.1C53.95 303.108 60.4419 309.6 68.45 309.6Z" fill="#6C63FF"/>
<path id="Vector_71" opacity="0.1" d="M741.77 262C746.547 262 750.42 258.127 750.42 253.35C750.42 248.573 746.547 244.7 741.77 244.7C736.993 244.7 733.12 248.573 733.12 253.35C733.12 258.127 736.993 262 741.77 262Z" fill="#6C63FF"/>
<path id="Vector_72" opacity="0.1" d="M778.85 235.11C786.858 235.11 793.35 228.618 793.35 220.61C793.35 212.602 786.858 206.11 778.85 206.11C770.842 206.11 764.35 212.602 764.35 220.61C764.35 228.618 770.842 235.11 778.85 235.11Z" fill="#6C63FF"/>
<path id="Vector_73" opacity="0.1" d="M778.85 235.11C786.858 235.11 793.35 228.618 793.35 220.61C793.35 212.602 786.858 206.11 778.85 206.11C770.842 206.11 764.35 212.602 764.35 220.61C764.35 228.618 770.842 235.11 778.85 235.11Z" fill="#6C63FF"/>
<path id="Vector_74" opacity="0.1" d="M826.5 186C834.508 186 841 179.508 841 171.5C841 163.492 834.508 157 826.5 157C818.492 157 812 163.492 812 171.5C812 179.508 818.492 186 826.5 186Z" fill="#6C63FF"/>
<path id="Vector_75" opacity="0.1" d="M709.45 257.6C717.458 257.6 723.95 251.108 723.95 243.1C723.95 235.092 717.458 228.6 709.45 228.6C701.442 228.6 694.95 235.092 694.95 243.1C694.95 251.108 701.442 257.6 709.45 257.6Z" fill="#6C63FF"/>
<path id="Vector_76" opacity="0.1" d="M216.58 178.57C236.6 178.57 252.83 162.34 252.83 142.32C252.83 122.3 236.6 106.07 216.58 106.07C196.56 106.07 180.33 122.3 180.33 142.32C180.33 162.34 196.56 178.57 216.58 178.57Z" fill="#6C63FF"/>
<path id="Vector_77" opacity="0.1" d="M630.58 419.24C642.134 419.24 651.5 409.874 651.5 398.32C651.5 386.766 642.134 377.4 630.58 377.4C619.026 377.4 609.66 386.766 609.66 398.32C609.66 409.874 619.026 419.24 630.58 419.24Z" fill="#6C63FF"/>
<path id="Vector_78" d="M255 592.57C320.998 592.57 374.5 581.825 374.5 568.57C374.5 555.315 320.998 544.57 255 544.57C189.002 544.57 135.5 555.315 135.5 568.57C135.5 581.825 189.002 592.57 255 592.57Z" stroke="#444053" stroke-miterlimit="10"/>
<path id="Vector_79" d="M940 663.57C1006 663.57 1059.5 652.825 1059.5 639.57C1059.5 626.315 1006 615.57 940 615.57C874.002 615.57 820.5 626.315 820.5 639.57C820.5 652.825 874.002 663.57 940 663.57Z" stroke="#444053" stroke-miterlimit="10"/>
<path id="Vector_80" d="M120 663.57C185.998 663.57 239.5 652.825 239.5 639.57C239.5 626.315 185.998 615.57 120 615.57C54.002 615.57 0.5 626.315 0.5 639.57C0.5 652.825 54.002 663.57 120 663.57Z" stroke="#444053" stroke-miterlimit="10"/>
</g>
<defs>
<linearGradient id="paint0_linear_2_8" x1="166.574" y1="562.571" x2="166.574" y2="262.161" gradientUnits="userSpaceOnUse">
<stop stop-color="#808080" stop-opacity="0.25"/>
<stop offset="0.54" stop-color="#808080" stop-opacity="0.12"/>
<stop offset="1" stop-color="#808080" stop-opacity="0.1"/>
</linearGradient>
<clipPath id="clip0_2_8">
<rect width="1060" height="664.07" fill="white"/>
</clipPath>
</defs>
</svg>
